<svg width="40" height="40" viewBox="0 0 40 40" fill="none" xmlns="http://www.w3.org/2000/svg">
<path d="M27.608 14.872C27.608 15.6613 27.4907 16.3653 27.256 16.984C27.0427 17.5813 26.7227 18.1467 26.296 18.68C25.8693 19.192 25.1653 19.8 24.184 20.504L22.936 21.432C22.1893 21.9867 21.6347 22.5627 21.272 23.16C20.9093 23.7573 20.7173 24.408 20.696 25.112H17.976C17.9973 24.3867 18.104 23.7573 18.296 23.224C18.5093 22.6693 18.776 22.1893 19.096 21.784C19.416 21.3573 19.7787 20.984 20.184 20.664C20.5893 20.344 20.9947 20.0347 21.4 19.736C21.8267 19.4373 22.2427 19.1387 22.648 18.84C23.0533 18.5413 23.4053 18.2107 23.704 17.848C24.024 17.4853 24.28 17.08 24.472 16.632C24.664 16.1627 24.76 15.6187 24.76 15C24.76 13.8053 24.3547 12.8667 23.544 12.184C22.7333 11.5013 21.6027 11.16 20.152 11.16C18.7013 11.16 17.5493 11.5227 16.696 12.248C15.8427 12.9733 15.3413 13.976 15.192 15.256L12.312 15.064C12.5893 12.9947 13.4 11.416 14.744 10.328C16.1093 9.21867 17.9013 8.664 20.12 8.664C22.4453 8.664 24.2693 9.21867 25.592 10.328C26.936 11.416 27.608 12.9307 27.608 14.872ZM17.848 31V27.864H20.888V31H17.848Z" fill="black"/>
<mask id="mask0_342_76" style="mask-type:alpha" maskUnits="userSpaceOnUse" x="0" y="0" width="40" height="40">
<circle cx="20" cy="20" r="18.75" stroke="black" stroke-width="2.5"/>
</mask>
<g mask="url(#mask0_342_76)">
<circle cx="20" cy="20" r="18.75" stroke="black" stroke-width="2.5"/>
</g>
</svg>
