<svg width="100%" height="100%" viewBox="0 0 19 18" fill="none" xmlns="http://www.w3.org/2000/svg">
<path fill-rule="evenodd" clip-rule="evenodd" d="M9.36865 18C13.1126 18 16.3226 15.7139 17.6789 12.4615H15.3654C14.1684 14.5309 11.9311 15.9231 9.36854 15.9231C5.54504 15.9231 2.44547 12.8235 2.44547 9C2.44547 5.17649 5.54504 2.07692 9.36854 2.07692C12.4044 2.07692 14.9839 4.031 15.9178 6.75H14.6322L16.2916 8.98549C16.2916 8.99032 16.2916 8.99516 16.2916 9H16.3024L17.3302 10.3846L18.358 9H18.3687C18.3687 8.99522 18.3686 8.99044 18.3686 8.98567L20.0282 6.75H18.0851C17.086 2.86824 13.5623 0 9.36865 0C4.39809 0 0.368652 4.02944 0.368652 9C0.368652 13.9706 4.39809 18 9.36865 18Z" fill="white"/>
</svg>
